<?xml version="1.0" encoding="utf-8"?>
<!-- Generator: Adobe Illustrator 27.9.4, SVG Export Plug-In . SVG Version: 9.03 Build 54784)  -->
<svg version="1.1" id="레이어_1" xmlns="http://www.w3.org/2000/svg" xmlns:xlink="http://www.w3.org/1999/xlink" x="0px"
	 y="0px" width="30px" height="30px" viewBox="0 0 30 30" style="enable-background:new 0 0 30 30;" xml:space="preserve">
<style type="text/css">
	.st0{display:none;fill-rule:evenodd;clip-rule:evenodd;fill:#FFFFFF;}
	.st1{fill-rule:evenodd;clip-rule:evenodd;fill:#FFFFFF;}
</style>
<path class="st0" d="M23.7,15l-2.7,2.7l0,0L10.3,28.4l-2.7-2.7L18.4,15L7.6,4.2l2.7-2.7l10.8,10.8l0,0L23.7,15z"/>
<path class="st1" d="M15,2.7c-5.4,0-9.8,4.4-9.8,9.7c0,8,9.8,14.9,9.8,14.9s9.8-7,9.8-14.9C24.8,7,20.4,2.7,15,2.7z M15,17
	c-2.5,0-4.6-2.1-4.6-4.6c0-2.5,2.1-4.6,4.6-4.6s4.6,2.1,4.6,4.6C19.6,14.9,17.5,17,15,17z"/>
</svg>
