<?xml version="1.0" encoding="utf-8"?>
<!-- Generator: Adobe Illustrator 27.9.6, SVG Export Plug-In . SVG Version: 9.03 Build 54986)  -->
<svg version="1.1" id="레이어_1" xmlns="http://www.w3.org/2000/svg" xmlns:xlink="http://www.w3.org/1999/xlink" x="0px"
	 y="0px" width="30px" height="30px" viewBox="0 0 30 30" style="enable-background:new 0 0 30 30;" xml:space="preserve">
<style type="text/css">
	.st0{fill:#FFFFFF;}
</style>
<path class="st0" d="M21,6.9c-0.9-1-1.4-2.3-1.4-3.7h-1.1C18.8,4.8,19.7,6.1,21,6.9z M11,14.9c-1.9,0-3.4,1.6-3.4,3.4
	c0,1.3,0.8,2.4,1.8,3c-0.4-0.6-0.6-1.3-0.6-2c0-1.9,1.5-3.4,3.4-3.4c0.3,0,0.7,0.1,1,0.2V12c-0.3,0-0.7-0.1-1-0.1
	c-0.1,0-0.1,0-0.2,0l0,0l0,3.1C11.7,14.9,11.4,14.9,11,14.9z"/>
<path class="st0" d="M24.1,8.7L24.1,8.7l0,3.1c-2.1,0-4-0.7-5.6-1.8l0,8.2c0,4.1-3.3,7.4-7.4,7.4c-1.6,0-3.1-0.5-4.3-1.3
	c1.4,1.5,3.3,2.4,5.4,2.4c4.1,0,7.4-3.3,7.4-7.4v-8.2c1.6,1.1,3.5,1.8,5.6,1.8v-4C24.8,8.9,24.4,8.8,24.1,8.7z"/>
<path class="st0" d="M18.4,18.3v-8.2c1.6,1.1,3.5,1.8,5.6,1.8V8.7c-1.2-0.3-2.3-0.9-3.1-1.8c-1.3-0.8-2.2-2.1-2.5-3.7h-3l0,16.2
	c-0.1,1.8-1.6,3.3-3.4,3.3c-1.1,0-2.1-0.6-2.8-1.4c-1.1-0.6-1.8-1.7-1.8-3c0-1.9,1.5-3.4,3.4-3.4c0.3,0,0.7,0.1,1,0.2v-3.2
	c-4,0.1-7.3,3.4-7.3,7.4c0,2,0.8,3.7,2,5.1c1.2,0.9,2.7,1.3,4.3,1.3C15.1,25.7,18.4,22.4,18.4,18.3z"/>
</svg>
