<?xml version="1.0" encoding="utf-8"?>
<!-- Generator: Adobe Illustrator 27.9.6, SVG Export Plug-In . SVG Version: 9.03 Build 54986)  -->
<svg version="1.1" id="레이어_1" xmlns="http://www.w3.org/2000/svg" xmlns:xlink="http://www.w3.org/1999/xlink" x="0px"
	 y="0px" width="30px" height="30px" viewBox="0 0 30 30" style="enable-background:new 0 0 30 30;" xml:space="preserve">
<style type="text/css">
	.st0{fill:#FFFFFF;}
</style>
<path class="st0" d="M20.9,14c-0.1,0-0.2-0.1-0.3-0.1c-0.1-3.5-2-5.5-5.2-5.5l0,0c-1.9,0-3.5,0.8-4.4,2.3l1.7,1.3
	c0.7-1.1,1.9-1.4,2.7-1.4l0,0c1,0,1.8,0.3,2.4,0.9c0.3,0.5,0.6,1,0.8,1.8c-1-0.1-2-0.2-3.1-0.1c-3.1,0.2-5,1.9-4.9,4.4
	c0.1,1.3,0.7,2.4,1.7,3.1c0.9,0.6,2,0.9,3.3,0.8c1.6-0.1,2.8-0.7,3.8-1.8c0.7-0.8,1-1.9,1.3-3.3c0.8,0.5,1.4,1,1.6,1.8
	c0.6,1.3,0.6,3.3-1.1,4.9c-1.5,1.5-3.2,2-5.8,2c-3,0-5.1-0.9-6.5-2.7c-1.4-1.7-2-4.2-2-7.3c0-3.2,0.7-5.6,2-7.3
	c1.5-1.8,3.6-2.7,6.5-2.7c3,0,5.1,0.9,6.6,2.7c0.7,0.9,1.3,2,1.6,3.3l2-0.6c-0.5-1.6-1.1-3-2-4.2c-1.9-2.4-4.7-3.5-8.3-3.5l0,0
	c-3.4-0.1-6.1,1-8,3.4c-1.7,2-2.5,5-2.6,8.6l0,0c0,3.6,0.9,6.6,2.5,8.6c1.8,2.4,4.5,3.5,8.2,3.5l0,0c3.2,0,5.5-0.9,7.3-2.7
	c2.4-2.4,2.4-5.5,1.6-7.3C23.5,15.9,22.5,14.7,20.9,14L20.9,14z M15.5,19.3c-1.4,0.1-2.7-0.6-2.7-1.8c0-0.9,0.7-2,2.8-2.2
	c0.2,0,0.5,0,0.7,0c0.8,0,1.5,0.1,2.2,0.2C18.3,18.6,16.8,19.2,15.5,19.3L15.5,19.3z"/>
</svg>
