<?xml version="1.0" encoding="utf-8"?>
<!-- Generator: Adobe Illustrator 27.9.6, SVG Export Plug-In . SVG Version: 9.03 Build 54986)  -->
<svg version="1.1" id="레이어_1" xmlns="http://www.w3.org/2000/svg" xmlns:xlink="http://www.w3.org/1999/xlink" x="0px"
	 y="0px" width="30px" height="30px" viewBox="0 0 30 30" style="enable-background:new 0 0 30 30;" xml:space="preserve">
<style type="text/css">
	.st0{fill-rule:evenodd;clip-rule:evenodd;fill:#2C1508;}
	.st1{fill-rule:evenodd;clip-rule:evenodd;fill:#F4C110;}
</style>
<path class="st0" d="M23,17.6c0-3.2-3.6-5.7-8-5.7s-8,2.5-8,5.7c0,1.7,1,3.2,2.6,4.2h-7L7,10.5h16l4.4,11.3h-7
	C22,20.8,23,19.3,23,17.6z M27.4,23.2v2c0,0.6-0.5,1.1-1.1,1.1H3.7c-0.6,0-1.1-0.5-1.1-1.1v-2H27.4z M3.8,3.7h22.4L23,9H7L3.8,3.7z"
	/>
<path class="st1" d="M15,21.4c-3.4,0-6-1.8-6-3.8c0-2.1,2.6-3.8,6-3.8s6,1.8,6,3.8C21,19.6,18.4,21.4,15,21.4z"/>
</svg>
