<?xml version="1.0" encoding="utf-8"?>
<!-- Generator: Adobe Illustrator 27.9.6, SVG Export Plug-In . SVG Version: 9.03 Build 54986)  -->
<svg version="1.1" id="레이어_1" xmlns="http://www.w3.org/2000/svg" xmlns:xlink="http://www.w3.org/1999/xlink" x="0px"
	 y="0px" width="30px" height="30px" viewBox="0 0 30 30" style="enable-background:new 0 0 30 30;" xml:space="preserve">
<style type="text/css">
	.st0{fill-rule:evenodd;clip-rule:evenodd;fill:#2C1508;}
	.st1{fill-rule:evenodd;clip-rule:evenodd;fill:#F8D732;}
</style>
<path class="st0" d="M25.1,14.9h-6.5V9.8l2.2-0.2h4.3c0.8,0,1.5,0.7,1.5,1.5v2.2C26.6,14.2,25.9,14.9,25.1,14.9z M4.9,26.6v-9.8h6.5
	v10.9h-5C5.5,27.7,4.9,27.4,4.9,26.6z M3.4,13.4v-2.2c0-0.8,0.7-1.5,1.5-1.5h4.3l2.2,0.2v5.1H4.9C4.1,14.9,3.4,14.2,3.4,13.4z
	 M25.2,26.6c0,0.8-0.7,1.1-1.5,1.1h-5V16.8h6.5V26.6z"/>
<path class="st1" d="M20.8,9.7c1.5-0.4,2.5-1.8,2.6-3.4c0.1-2.2-1.9-4-4.2-3.8C17.1,2.6,15.9,4,15,5.5C14.1,4,13,2.6,10.8,2.5
	C8.7,2.3,6.7,3.8,6.6,5.9c-0.1,1.7,1,3.2,2.6,3.8l2.2,0.2h1.8v17.8h3.5V9.8h1.8L20.8,9.7z M19.7,4.6c0.8,0,1.5,0.7,1.5,1.5
	c0,0.8-0.7,1.5-1.5,1.5h-3.4C17.5,5.6,18.1,4.6,19.7,4.6z M10.3,4.6c1.6,0,2.3,1,3.4,3h-3.4C9.5,7.6,8.8,7,8.8,6.2
	C8.8,5.4,9.5,4.6,10.3,4.6z"/>
</svg>
