<?xml version="1.0" encoding="utf-8"?>
<!-- Generator: Adobe Illustrator 27.9.6, SVG Export Plug-In . SVG Version: 9.03 Build 54986)  -->
<svg version="1.1" id="레이어_1" xmlns="http://www.w3.org/2000/svg" xmlns:xlink="http://www.w3.org/1999/xlink" x="0px"
	 y="0px" width="30px" height="30px" viewBox="0 0 30 30" style="enable-background:new 0 0 30 30;" xml:space="preserve">
<style type="text/css">
	.st0{fill-rule:evenodd;clip-rule:evenodd;fill:#2C1508;}
	.st1{fill-rule:evenodd;clip-rule:evenodd;fill:#F4C110;}
</style>
<path class="st0" d="M14.9,28.2c3.6-3,9.9-11,9.9-16.5c0-3.5-1.9-6.7-4.9-8.6c-3-1.7-6.8-1.7-9.9,0s-4.9,5-4.9,8.6
	C5.1,17,11.4,25.2,14.9,28.2L14.9,28.2z M9.5,11.6c0-1.4,0.6-2.8,1.6-3.8s2.3-1.6,3.8-1.6c1.4,0,2.8,0.6,3.8,1.6s1.6,2.4,1.6,3.8
	s-0.6,2.8-1.6,3.8S16.4,17,14.9,17c-1.4,0-2.8-0.6-3.8-1.6C10.1,14.5,9.5,13.1,9.5,11.6L9.5,11.6z"/>
<path class="st1" d="M14.8,8.2c1.9,0,3.5,1.5,3.5,3.5c0,1.9-1.5,3.5-3.5,3.5c-1.9,0-3.5-1.5-3.5-3.5C11.4,9.7,12.9,8.2,14.8,8.2z"/>
</svg>
