<?xml version="1.0" encoding="utf-8"?>
<!-- Generator: Adobe Illustrator 27.9.4, SVG Export Plug-In . SVG Version: 9.03 Build 54784)  -->
<svg version="1.1" id="레이어_1" xmlns="http://www.w3.org/2000/svg" xmlns:xlink="http://www.w3.org/1999/xlink" x="0px"
	 y="0px" width="50px" height="50px" viewBox="0 0 50 50" style="enable-background:new 0 0 50 50;" xml:space="preserve">
<style type="text/css">
	.st0{fill-rule:evenodd;clip-rule:evenodd;fill:#BF8C0A;}
</style>
<path class="st0" d="M25,49.2c-1.7,0-3.3-0.8-4.3-2.2C14.9,39.2,5.2,28.5,5.2,20.6C5.2,13.5,9,7,15.1,3.5c6.1-3.5,13.7-3.5,19.8,0
	C41,7,44.8,13.5,44.8,20.6c0,7.9-9.7,18.6-15.5,26.4C28.3,48.4,26.7,49.2,25,49.2L25,49.2z M25,4.2c-4.3,0-8.5,1.8-11.5,4.8
	s-4.7,7.2-4.7,11.5c0,5,5.4,11.5,14.8,24.2c0.3,0.4,0.9,0.7,1.4,0.7c0.6,0,1.1-0.3,1.4-0.7c9.4-12.7,14.8-19.3,14.8-24.2
	c0-4.3-1.7-8.5-4.7-11.5C33.5,6,29.3,4.3,25,4.2L25,4.2z M25,31.2c-2.9,0-5.6-1.1-7.6-3.2c-2-2-3.2-4.8-3.2-7.6
	c0-2.9,1.1-5.6,3.2-7.6c2-2,4.8-3.2,7.6-3.2c2.9,0,5.6,1.1,7.6,3.2c2,2,3.2,4.8,3.2,7.6c0,2.9-1.1,5.6-3.2,7.6
	C30.6,30.1,27.9,31.2,25,31.2L25,31.2z M25,13.2c-2.9,0-5.5,1.8-6.7,4.4c-1.1,2.7-0.5,5.8,1.6,7.8c2.1,2.1,5.2,2.7,7.9,1.6
	c2.7-1.1,4.4-3.7,4.4-6.6c0-1.9-0.8-3.7-2.1-5.1C28.7,14,26.9,13.2,25,13.2L25,13.2z"/>
</svg>
