<?xml version="1.0" encoding="utf-8"?>
<!-- Generator: Adobe Illustrator 27.9.4, SVG Export Plug-In . SVG Version: 9.03 Build 54784)  -->
<svg version="1.1" id="레이어_1" xmlns="http://www.w3.org/2000/svg" xmlns:xlink="http://www.w3.org/1999/xlink" x="0px"
	 y="0px" width="50px" height="50px" viewBox="0 0 50 50" style="enable-background:new 0 0 50 50;" xml:space="preserve">
<style type="text/css">
	.st0{display:none;fill-rule:evenodd;clip-rule:evenodd;fill:#BF8C0A;}
	.st1{display:none;fill-rule:evenodd;clip-rule:evenodd;fill:#4F2E0C;}
	.st2{display:none;fill-rule:evenodd;clip-rule:evenodd;fill:#262626;stroke:#262626;stroke-width:1.0378;}
	.st3{fill-rule:evenodd;clip-rule:evenodd;fill:#262626;}
</style>
<path class="st0" d="M25,49.2c-1.7,0-3.3-0.8-4.3-2.2C14.9,39.2,5.2,28.5,5.2,20.6C5.2,13.5,9,7,15.1,3.5c6.1-3.5,13.7-3.5,19.8,0
	C41,7,44.8,13.5,44.8,20.6c0,7.9-9.7,18.6-15.5,26.4C28.3,48.4,26.7,49.2,25,49.2L25,49.2z M25,4.2c-4.3,0-8.5,1.8-11.5,4.8
	s-4.7,7.2-4.7,11.5c0,5,5.4,11.5,14.8,24.2c0.3,0.4,0.9,0.7,1.4,0.7c0.6,0,1.1-0.3,1.4-0.7c9.4-12.7,14.8-19.3,14.8-24.2
	c0-4.3-1.7-8.5-4.7-11.5C33.5,6,29.3,4.3,25,4.2L25,4.2z M25,31.2c-2.9,0-5.6-1.1-7.6-3.2c-2-2-3.2-4.8-3.2-7.6
	c0-2.9,1.1-5.6,3.2-7.6c2-2,4.8-3.2,7.6-3.2c2.9,0,5.6,1.1,7.6,3.2c2,2,3.2,4.8,3.2,7.6c0,2.9-1.1,5.6-3.2,7.6
	C30.6,30.1,27.9,31.2,25,31.2L25,31.2z M25,13.2c-2.9,0-5.5,1.8-6.7,4.4c-1.1,2.7-0.5,5.8,1.6,7.8c2.1,2.1,5.2,2.7,7.9,1.6
	c2.7-1.1,4.4-3.7,4.4-6.6c0-1.9-0.8-3.7-2.1-5.1C28.7,14,26.9,13.2,25,13.2L25,13.2z"/>
<path class="st1" d="M25,39.7L3.5,10.3h43L25,39.7z"/>
<path class="st2" d="M40,21.9c0-10-8.1-18.2-18.1-18.2S3.7,11.8,3.7,21.9S11.8,40,21.9,40c3.9,0,7.7-1.3,10.9-3.6l9.9,9.9l3.7-3.7
	l-9.9-9.9C38.8,29.6,40,25.8,40,21.9z M21.9,34.8c-7.2,0-13-5.8-13-13s5.8-13,13-13c7.2,0,13,5.8,13,13S29,34.8,21.9,34.8z"/>
<path class="st3" d="M36.4,46.4H13.6c-4.2,0-7.7-3.4-7.7-7.7c0-7.4,6-13.4,13.4-13.4h11.3c7.4,0,13.4,6,13.4,13.4
	C44.1,43,40.7,46.4,36.4,46.4z M30.7,30.4H19.3c-4.6,0-8.3,3.7-8.3,8.3c0,1.4,1.1,2.5,2.5,2.5h22.9c1.4,0,2.5-1.1,2.5-2.5
	C39,34.1,35.3,30.4,30.7,30.4z M25,23.6c-5.5,0-10-4.5-10-10s4.5-10,10-10s10,4.5,10,10S30.5,23.6,25,23.6z M25,8.7
	c-2.7,0-4.8,2.2-4.8,4.8s2.2,4.8,4.8,4.8s4.8-2.2,4.8-4.8S27.7,8.7,25,8.7z"/>
</svg>
