<?xml version="1.0" encoding="utf-8"?>
<!-- Generator: Adobe Illustrator 27.9.4, SVG Export Plug-In . SVG Version: 9.03 Build 54784)  -->
<svg version="1.1" id="레이어_1" xmlns="http://www.w3.org/2000/svg" xmlns:xlink="http://www.w3.org/1999/xlink" x="0px"
	 y="0px" width="50px" height="50px" viewBox="0 0 50 50" style="enable-background:new 0 0 50 50;" xml:space="preserve">
<style type="text/css">
	.st0{display:none;}
	.st1{display:inline;}
	.st2{clip-path:url(#SVGID_00000123433672016788990550000010681131343543732670_);fill:#FED100;}
	
		.st3{clip-path:url(#SVGID_00000013895338974786063560000016703921573320464535_);fill:none;stroke:#231F20;stroke-width:1.5042;stroke-linecap:round;stroke-linejoin:round;stroke-miterlimit:10;}
	
		.st4{clip-path:url(#SVGID_00000039126260853626663990000016778529174701603981_);fill:none;stroke:#231F20;stroke-width:1.5042;stroke-linecap:round;stroke-linejoin:round;stroke-miterlimit:10;}
	
		.st5{clip-path:url(#SVGID_00000020393525075577982910000000820087216665276559_);fill:none;stroke:#231F20;stroke-width:1.5042;stroke-linecap:round;stroke-linejoin:round;stroke-miterlimit:10;}
	
		.st6{clip-path:url(#SVGID_00000044876344948730251290000006903772077258237873_);fill:none;stroke:#231F20;stroke-width:1.5042;stroke-linecap:round;stroke-linejoin:round;stroke-miterlimit:10;}
	
		.st7{clip-path:url(#SVGID_00000105420902746185676540000000689189737174503847_);fill:none;stroke:#231F20;stroke-width:1.5042;stroke-linecap:round;stroke-linejoin:round;stroke-miterlimit:10;}
	
		.st8{clip-path:url(#SVGID_00000178923661852937508020000002608157669203430027_);fill:none;stroke:#231F20;stroke-width:1.5042;stroke-linecap:round;stroke-linejoin:round;stroke-miterlimit:10;}
	
		.st9{clip-path:url(#SVGID_00000076596888006720338630000010735034350255163555_);fill:none;stroke:#231F20;stroke-width:1.5042;stroke-linecap:round;stroke-linejoin:round;stroke-miterlimit:10;}
	
		.st10{clip-path:url(#SVGID_00000018926988540702454320000009325951290890211261_);fill:none;stroke:#231F20;stroke-width:1.5042;stroke-linecap:round;stroke-linejoin:round;stroke-miterlimit:10;}
	
		.st11{clip-path:url(#SVGID_00000016052481769267681680000017057855168593170588_);fill:none;stroke:#231F20;stroke-width:1.5042;stroke-linecap:round;stroke-linejoin:round;stroke-miterlimit:10;}
	
		.st12{clip-path:url(#SVGID_00000086658513974947740630000006361278525857114795_);fill:none;stroke:#231F20;stroke-width:1.5042;stroke-linecap:round;stroke-linejoin:round;stroke-miterlimit:10;}
	.st13{clip-path:url(#SVGID_00000086683575137947639620000017642232389418208168_);fill:#FED100;}
	
		.st14{clip-path:url(#SVGID_00000128445153712713504260000000465165363103521448_);fill:none;stroke:#231F20;stroke-width:1.5042;stroke-linecap:round;stroke-linejoin:round;stroke-miterlimit:10;}
	
		.st15{clip-path:url(#SVGID_00000136378890709178007720000009818242024557648574_);fill:none;stroke:#231F20;stroke-width:1.5042;stroke-linecap:round;stroke-linejoin:round;stroke-miterlimit:10;}
	.st16{clip-path:url(#SVGID_00000011021312798361505440000007306035485669182655_);fill:#FED100;}
	
		.st17{clip-path:url(#SVGID_00000072270656985601624710000013477642071083117477_);fill:none;stroke:#231F20;stroke-width:1.5042;stroke-linecap:round;stroke-linejoin:round;stroke-miterlimit:10;}
	.st18{fill:#FED100;stroke:#231F20;stroke-width:1.3537;stroke-linecap:round;stroke-linejoin:round;stroke-miterlimit:10;}
	.st19{fill:none;stroke:#231F20;stroke-width:1.3537;stroke-linecap:round;stroke-linejoin:round;stroke-miterlimit:10;}
	
		.st20{display:inline;clip-path:url(#SVGID_00000069373726431435442160000000763825060702238345_);fill:none;stroke:#231F20;stroke-width:1.2524;stroke-linecap:round;stroke-linejoin:round;stroke-miterlimit:10;}
	.st21{display:inline;clip-path:url(#SVGID_00000069373726431435442160000000763825060702238345_);fill:#FED100;}
</style>
<g class="st0">
	<g class="st1">
		<defs>
			<rect id="SVGID_1_" x="9.6" y="2.1" width="30.7" height="45.7"/>
		</defs>
		<clipPath id="SVGID_00000018215248741770710390000018076142215362230948_">
			<use xlink:href="#SVGID_1_"  style="overflow:visible;"/>
		</clipPath>
		<path style="clip-path:url(#SVGID_00000018215248741770710390000018076142215362230948_);fill:#FED100;" d="M20.2,20.2
			c0,0-4.2,0.2-5.9,1.8c-1.7,1.6-2.7,2.5-3.2,6.9s-0.8,6.2-0.8,6.2h4.9v-9.3h19.7l-0.1,8.5l4.9,0.1c0,0-0.5-6.7-1.5-9.3
			s-3.3-3.7-5.3-4.1c-2-0.5-3.2-0.8-3.2-0.8s-0.8,3.4-4.4,3.3C21.6,23.4,20.2,20.2,20.2,20.2"/>
	</g>
	<g class="st1">
		<defs>
			<rect id="SVGID_00000173123952553535099190000007377247396516928951_" x="9.6" y="2.1" width="30.7" height="45.7"/>
		</defs>
		<clipPath id="SVGID_00000019635922378290901350000016447228116887009165_">
			<use xlink:href="#SVGID_00000173123952553535099190000007377247396516928951_"  style="overflow:visible;"/>
		</clipPath>
		
			<line style="clip-path:url(#SVGID_00000019635922378290901350000016447228116887009165_);fill:none;stroke:#231F20;stroke-width:1.5042;stroke-linecap:round;stroke-linejoin:round;stroke-miterlimit:10;" x1="34.9" y1="34.8" x2="39.5" y2="34.8"/>
	</g>
	<g class="st1">
		<defs>
			<rect id="SVGID_00000058577877064863997620000002513909865941207955_" x="9.6" y="2.1" width="30.7" height="45.7"/>
		</defs>
		<clipPath id="SVGID_00000030484918838320884340000000785946380233209002_">
			<use xlink:href="#SVGID_00000058577877064863997620000002513909865941207955_"  style="overflow:visible;"/>
		</clipPath>
		
			<path style="clip-path:url(#SVGID_00000030484918838320884340000000785946380233209002_);fill:none;stroke:#231F20;stroke-width:1.5042;stroke-linecap:round;stroke-linejoin:round;stroke-miterlimit:10;" d="
			M20.1,28.5V32c0,0.8,0.6,1.4,1.4,1.4h1.1c0.8,0,1.4-0.6,1.4-1.4v-3.5"/>
	</g>
	<g class="st1">
		<defs>
			<rect id="SVGID_00000127038618534961040010000014530540649188465059_" x="9.6" y="2.1" width="30.7" height="45.7"/>
		</defs>
		<clipPath id="SVGID_00000065775466085570866090000000131952820478525346_">
			<use xlink:href="#SVGID_00000127038618534961040010000014530540649188465059_"  style="overflow:visible;"/>
		</clipPath>
		
			<line style="clip-path:url(#SVGID_00000065775466085570866090000000131952820478525346_);fill:none;stroke:#231F20;stroke-width:1.5042;stroke-linecap:round;stroke-linejoin:round;stroke-miterlimit:10;" x1="22.1" y1="41.1" x2="22.1" y2="28.5"/>
	</g>
	<g class="st1">
		<defs>
			<rect id="SVGID_00000103978996742445257120000018161853374553929138_" x="9.6" y="2.1" width="30.7" height="45.7"/>
		</defs>
		<clipPath id="SVGID_00000176043174345660334850000003014010323030400649_">
			<use xlink:href="#SVGID_00000103978996742445257120000018161853374553929138_"  style="overflow:visible;"/>
		</clipPath>
		
			<path style="clip-path:url(#SVGID_00000176043174345660334850000003014010323030400649_);fill:none;stroke:#231F20;stroke-width:1.5042;stroke-linecap:round;stroke-linejoin:round;stroke-miterlimit:10;" d="
			M29.9,31.7c0-1.4-0.9-3.2-2-3.2s-2,1.8-2,3.2s0.9,1.8,2,1.8S29.9,33.1,29.9,31.7z"/>
	</g>
	<g class="st1">
		<defs>
			<rect id="SVGID_00000037688322127688527210000015667031265875355023_" x="9.6" y="2.1" width="30.7" height="45.7"/>
		</defs>
		<clipPath id="SVGID_00000105389190167199302890000015252140335590247576_">
			<use xlink:href="#SVGID_00000037688322127688527210000015667031265875355023_"  style="overflow:visible;"/>
		</clipPath>
		
			<line style="clip-path:url(#SVGID_00000105389190167199302890000015252140335590247576_);fill:none;stroke:#231F20;stroke-width:1.5042;stroke-linecap:round;stroke-linejoin:round;stroke-miterlimit:10;" x1="27.9" y1="33.5" x2="27.9" y2="41.1"/>
	</g>
	<g class="st1">
		<defs>
			<rect id="SVGID_00000008141875330589174550000001925924178910545802_" x="9.6" y="2.1" width="30.7" height="45.7"/>
		</defs>
		<clipPath id="SVGID_00000069377286667579770910000016747682940309729171_">
			<use xlink:href="#SVGID_00000008141875330589174550000001925924178910545802_"  style="overflow:visible;"/>
		</clipPath>
		
			<rect x="15.2" y="25.8" style="clip-path:url(#SVGID_00000069377286667579770910000016747682940309729171_);fill:none;stroke:#231F20;stroke-width:1.5042;stroke-linecap:round;stroke-linejoin:round;stroke-miterlimit:10;" width="19.7" height="18"/>
	</g>
	<g class="st1">
		<defs>
			<rect id="SVGID_00000173154492147822732800000001292037605772441516_" x="9.6" y="2.1" width="30.7" height="45.7"/>
		</defs>
		<clipPath id="SVGID_00000132769249317717629970000005303240645726927786_">
			<use xlink:href="#SVGID_00000173154492147822732800000001292037605772441516_"  style="overflow:visible;"/>
		</clipPath>
		
			<path style="clip-path:url(#SVGID_00000132769249317717629970000005303240645726927786_);fill:none;stroke:#231F20;stroke-width:1.5042;stroke-linecap:round;stroke-linejoin:round;stroke-miterlimit:10;" d="
			M20.2,20.2c0.1,1.9,2.2,3.5,4.7,3.5s4.6-1.5,4.7-3.5"/>
	</g>
	<g class="st1">
		<defs>
			<rect id="SVGID_00000039098873938726022240000003524656046021835699_" x="9.6" y="2.1" width="30.7" height="45.7"/>
		</defs>
		<clipPath id="SVGID_00000142873178561539176200000013000284245916040576_">
			<use xlink:href="#SVGID_00000039098873938726022240000003524656046021835699_"  style="overflow:visible;"/>
		</clipPath>
		
			<path style="clip-path:url(#SVGID_00000142873178561539176200000013000284245916040576_);fill:none;stroke:#231F20;stroke-width:1.5042;stroke-linecap:round;stroke-linejoin:round;stroke-miterlimit:10;" d="
			M22.8,18.3v1.8h-0.2c0,0-1-0.1-2.4,0.1c-2.7,0.3-6.9,1.3-8.3,4.9c-1,2.5-3.3,19.5,1.2,21.6c4.1,1.9,5.9-2.8,5.9-2.8"/>
	</g>
	<g class="st1">
		<defs>
			<rect id="SVGID_00000052078512929680335640000007039350819500249532_" x="9.6" y="2.1" width="30.7" height="45.7"/>
		</defs>
		<clipPath id="SVGID_00000077284535378264612180000014173812302232863387_">
			<use xlink:href="#SVGID_00000052078512929680335640000007039350819500249532_"  style="overflow:visible;"/>
		</clipPath>
		
			<path style="clip-path:url(#SVGID_00000077284535378264612180000014173812302232863387_);fill:none;stroke:#231F20;stroke-width:1.5042;stroke-linecap:round;stroke-linejoin:round;stroke-miterlimit:10;" d="
			M27,18.3v1.8h0.4c0,0,0.9-0.1,2.2,0.1c2.7,0.2,7,1.2,8.5,4.9c1,2.5,3.3,19.5-1.2,21.6c-4.1,1.9-5.9-2.8-5.9-2.8"/>
	</g>
	<g class="st1">
		<defs>
			<rect id="SVGID_00000172431770412263472990000014814342054163015856_" x="9.6" y="2.1" width="30.7" height="45.7"/>
		</defs>
		<clipPath id="SVGID_00000040552777112704412860000013238387413109861763_">
			<use xlink:href="#SVGID_00000172431770412263472990000014814342054163015856_"  style="overflow:visible;"/>
		</clipPath>
		
			<path style="clip-path:url(#SVGID_00000040552777112704412860000013238387413109861763_);fill:none;stroke:#231F20;stroke-width:1.5042;stroke-linecap:round;stroke-linejoin:round;stroke-miterlimit:10;" d="
			M31.2,8.8c0.4,0.9,0.6,1.8,0.6,2.9c0,3.8-3.1,6.9-6.9,6.9S18,15.5,18,11.7c0-0.4,0-0.7,0.1-1.1"/>
	</g>
	<g class="st1">
		<defs>
			<rect id="SVGID_00000092426551094032826720000012973872983246015648_" x="9.6" y="2.1" width="30.7" height="45.7"/>
		</defs>
		<clipPath id="SVGID_00000001647021324241861230000017113961313400430767_">
			<use xlink:href="#SVGID_00000092426551094032826720000012973872983246015648_"  style="overflow:visible;"/>
		</clipPath>
		<path style="clip-path:url(#SVGID_00000001647021324241861230000017113961313400430767_);fill:#FED100;" d="M31.2,8.8
			c0,0-9.3,2.8-14,1.6c-3.6-0.9,1.5-2.7,1.5-2.7"/>
	</g>
	<g class="st1">
		<defs>
			<rect id="SVGID_00000169527041807030543320000002432860455901152949_" x="9.6" y="2.1" width="30.7" height="45.7"/>
		</defs>
		<clipPath id="SVGID_00000163058152290873449200000009208824230017013905_">
			<use xlink:href="#SVGID_00000169527041807030543320000002432860455901152949_"  style="overflow:visible;"/>
		</clipPath>
		
			<path style="clip-path:url(#SVGID_00000163058152290873449200000009208824230017013905_);fill:none;stroke:#231F20;stroke-width:1.5042;stroke-linecap:round;stroke-linejoin:round;stroke-miterlimit:10;" d="
			M31.2,8.8c0,0-9.3,2.8-14,1.6c-3.6-0.9,1.5-2.7,1.5-2.7"/>
	</g>
	<g class="st1">
		<defs>
			<rect id="SVGID_00000138554211643657410820000014891620930420528041_" x="9.6" y="2.1" width="30.7" height="45.7"/>
		</defs>
		<clipPath id="SVGID_00000124139115873106697510000018335374787613359248_">
			<use xlink:href="#SVGID_00000138554211643657410820000014891620930420528041_"  style="overflow:visible;"/>
		</clipPath>
		
			<line style="clip-path:url(#SVGID_00000124139115873106697510000018335374787613359248_);fill:none;stroke:#231F20;stroke-width:1.5042;stroke-linecap:round;stroke-linejoin:round;stroke-miterlimit:10;" x1="10.5" y1="34.8" x2="15.2" y2="34.8"/>
	</g>
	<g class="st1">
		<defs>
			<rect id="SVGID_00000148650335527976645540000002783780756259187628_" x="9.6" y="2.1" width="30.7" height="45.7"/>
		</defs>
		<clipPath id="SVGID_00000059275167783448040300000004803191208340667527_">
			<use xlink:href="#SVGID_00000148650335527976645540000002783780756259187628_"  style="overflow:visible;"/>
		</clipPath>
		<path style="clip-path:url(#SVGID_00000059275167783448040300000004803191208340667527_);fill:#FED100;" d="M20.1,8.4
			c-0.6,0-1.4-0.2-1.4-0.7c0-1.7,1.5-4.9,6.2-4.9c6.6,0,6.3,5.9,6.3,5.9L20.1,8.4z"/>
	</g>
	<g class="st1">
		<defs>
			<rect id="SVGID_00000063600574426705171690000012784193399568943021_" x="9.6" y="2.1" width="30.7" height="45.7"/>
		</defs>
		<clipPath id="SVGID_00000169524711026620129760000014029564376203677117_">
			<use xlink:href="#SVGID_00000063600574426705171690000012784193399568943021_"  style="overflow:visible;"/>
		</clipPath>
		
			<path style="clip-path:url(#SVGID_00000169524711026620129760000014029564376203677117_);fill:none;stroke:#231F20;stroke-width:1.5042;stroke-linecap:round;stroke-linejoin:round;stroke-miterlimit:10;" d="
			M20.1,8.4c-0.6,0-1.4-0.2-1.4-0.7c0-1.7,1.5-4.9,6.2-4.9c6.6,0,6.3,5.9,6.3,5.9L20.1,8.4z"/>
	</g>
</g>
<g>
	<rect x="10.4" y="23.5" class="st18" width="29" height="16.5"/>
	<polygon class="st19" points="10.5,7 6.5,17.1 13.4,17.1 15.9,7 	"/>
	<polygon class="st19" points="15.9,7 13.4,17.1 20.7,17.1 22.2,7 	"/>
	<polygon class="st19" points="39.4,7 43.4,17.1 36.5,17.1 34,7 	"/>
	<polygon class="st19" points="34,7 36.5,17.1 29.2,17.1 27.7,7 	"/>
	<polygon class="st19" points="22.2,7 27.7,7 29.2,17.1 20.7,17.1 	"/>
	<path class="st19" d="M13.4,17.1c0,1.9-1.5,3.5-3.5,3.5c-1.9,0-3.5-1.5-3.5-3.5H13.4z"/>
	<path class="st19" d="M20.7,17.1c0,2-1.6,3.7-3.7,3.7s-3.7-1.6-3.7-3.7H20.7z"/>
	<path class="st19" d="M36.5,17.1c0,1.9,1.5,3.5,3.5,3.5s3.5-1.5,3.5-3.5H36.5z"/>
	<path class="st19" d="M29.2,17.1c0,2,1.6,3.7,3.7,3.7s3.7-1.6,3.7-3.7H29.2z"/>
	<path class="st19" d="M20.7,17.1c0,2.2,1.9,4,4.2,4s4.2-1.8,4.2-4H20.7z"/>
	<polyline class="st19" points="7.9,19.9 7.9,42.9 42,42.9 42,19.9 	"/>
</g>
<g>
	<path d="M17.3,35.8L15,31.3h0l0.3,1.4v3.1h-1.5v-6l-0.2-1.1l1.5-0.1l2.3,4.4h0l-0.3-1.2v-3.1l1.5-0.1v7.2H17.3z"/>
	<path d="M24.6,34.7l-0.1,1.1h-4.5l0.1-1.1v-4.9l-0.2-1.1h4.6v1.1h-2.8l0.1,0.7v1h2.4v1h-2.4v1.6l0,0.6H24.6z"/>
	<path d="M29.6,35.8l-2.3-4.5h0l0.3,1.4v3.1H26v-6l-0.2-1.1l1.5-0.1l2.3,4.4h0l-0.3-1.2v-3.1l1.5-0.1v7.2H29.6z"/>
	<path d="M36.9,34.7l-0.1,1.1h-4.5l0.1-1.1v-4.9l-0.2-1.1h4.6v1.1h-2.8l0.1,0.7v1h2.4v1H34v1.6l0,0.6H36.9z"/>
</g>
<g class="st0">
	<defs>
		<rect id="SVGID_00000062180257615175782730000007947728873312361094_" x="3.6" y="14.2" width="42.7" height="21.5"/>
	</defs>
	<clipPath id="SVGID_00000090272294656472884470000017235749975022975906_" class="st1">
		<use xlink:href="#SVGID_00000062180257615175782730000007947728873312361094_"  style="overflow:visible;"/>
	</clipPath>
	
		<path style="display:inline;clip-path:url(#SVGID_00000090272294656472884470000017235749975022975906_);fill:none;stroke:#231F20;stroke-width:1.2524;stroke-linecap:round;stroke-linejoin:round;stroke-miterlimit:10;" d="
		M4.3,35.1l19,0c3.4-0.2,5.9-2.6,5.9-2.6l6.5-6.2c0.8-0.9,0-3.8-1.9-2.1l-1.1,0.8l-3.1,2.3c-1.4,1.1-3.2,1.7-5,1.7h-0.5
		c2.2,0,2.3-3-0.6-3h-4.9c-3.3-0.2-3.4,2.2-6.5,2.4c-0.2,0-0.3,0-0.5,0l-7.4-0.7"/>
	
		<line style="display:inline;clip-path:url(#SVGID_00000090272294656472884470000017235749975022975906_);fill:none;stroke:#231F20;stroke-width:1.2524;stroke-linecap:round;stroke-linejoin:round;stroke-miterlimit:10;" x1="24.2" y1="28.9" x2="20.2" y2="28.9"/>
	
		<rect x="15.4" y="14.9" style="display:inline;clip-path:url(#SVGID_00000090272294656472884470000017235749975022975906_);fill:#FED100;" width="30.4" height="5.2"/>
	
		<rect x="15.4" y="14.9" style="display:inline;clip-path:url(#SVGID_00000090272294656472884470000017235749975022975906_);fill:none;stroke:#231F20;stroke-width:1.2524;stroke-linecap:round;stroke-linejoin:round;stroke-miterlimit:10;" width="30.4" height="5.2"/>
	
		<polygon style="display:inline;clip-path:url(#SVGID_00000090272294656472884470000017235749975022975906_);fill:none;stroke:#231F20;stroke-width:1.2524;stroke-linecap:round;stroke-linejoin:round;stroke-miterlimit:10;" points="
		35.3,14.9 25.7,14.9 26.4,16.9 34.6,16.9 	"/>
</g>
</svg>
