<?xml version="1.0" encoding="utf-8"?>
<!-- Generator: Adobe Illustrator 27.9.4, SVG Export Plug-In . SVG Version: 9.03 Build 54784)  -->
<svg version="1.1" id="레이어_1" xmlns="http://www.w3.org/2000/svg" xmlns:xlink="http://www.w3.org/1999/xlink" x="0px"
	 y="0px" width="50px" height="50px" viewBox="0 0 50 50" style="enable-background:new 0 0 50 50;" xml:space="preserve">
<style type="text/css">
	.st0{fill-rule:evenodd;clip-rule:evenodd;fill:#262626;}
</style>
<path class="st0" d="M47.6,19.6L44.8,30c-0.9,3.3-3.8,5.5-7.2,5.5H23.8c-3.4,0-6.3-2.3-7.2-5.5l-1.1-4c-0.1-0.2-0.2-0.4-0.2-0.6
	l-3.8-14.2c-0.2-0.6-0.7-1.1-1.4-1.1H4.8c-1.5,0-2.6-1.2-2.6-2.6S3.4,5,4.8,5h5.3c3,0,5.7,2.1,6.5,5l0.7,2.6h24.9
	c1.7,0,3.3,0.8,4.4,2.2C47.7,16.2,48.1,17.9,47.6,19.6z M42.5,18c-0.1-0.1-0.2-0.1-0.2-0.1H18.9l2.9,10.8c0.2,0.9,1.1,1.6,2.1,1.6
	h13.8c1,0,1.8-0.7,2.1-1.6l2.8-10.4C42.5,18.2,42.5,18.1,42.5,18z M22.5,37.4c2.1,0,3.8,1.7,3.8,3.8S24.6,45,22.5,45
	s-3.8-1.7-3.8-3.8S20.4,37.4,22.5,37.4z M38.4,37.4c2.1,0,3.8,1.7,3.8,3.8S40.5,45,38.4,45s-3.8-1.7-3.8-3.8S36.3,37.4,38.4,37.4z"
	/>
</svg>
