<?xml version="1.0" encoding="utf-8"?>
<!-- Generator: Adobe Illustrator 27.9.4, SVG Export Plug-In . SVG Version: 9.03 Build 54784)  -->
<svg version="1.1" id="레이어_1" xmlns="http://www.w3.org/2000/svg" xmlns:xlink="http://www.w3.org/1999/xlink" x="0px"
	 y="0px" width="50px" height="50px" viewBox="0 0 50 50" style="enable-background:new 0 0 50 50;" xml:space="preserve">
<style type="text/css">
	.st0{display:none;}
	.st1{display:inline;}
	.st2{clip-path:url(#SVGID_00000130640012941650835860000011928518833069216677_);fill:#FED100;}
	
		.st3{clip-path:url(#SVGID_00000178199954383131261930000015196293094966011009_);fill:none;stroke:#231F20;stroke-width:1.5042;stroke-linecap:round;stroke-linejoin:round;stroke-miterlimit:10;}
	
		.st4{clip-path:url(#SVGID_00000096741007922571627270000012199021980306732448_);fill:none;stroke:#231F20;stroke-width:1.5042;stroke-linecap:round;stroke-linejoin:round;stroke-miterlimit:10;}
	
		.st5{clip-path:url(#SVGID_00000087381970841237231280000004896834611449338514_);fill:none;stroke:#231F20;stroke-width:1.5042;stroke-linecap:round;stroke-linejoin:round;stroke-miterlimit:10;}
	
		.st6{clip-path:url(#SVGID_00000067216950790933978880000009044883213877661314_);fill:none;stroke:#231F20;stroke-width:1.5042;stroke-linecap:round;stroke-linejoin:round;stroke-miterlimit:10;}
	
		.st7{clip-path:url(#SVGID_00000134232737179764930120000003882600251803455159_);fill:none;stroke:#231F20;stroke-width:1.5042;stroke-linecap:round;stroke-linejoin:round;stroke-miterlimit:10;}
	
		.st8{clip-path:url(#SVGID_00000181809385431264293690000010626763632027166634_);fill:none;stroke:#231F20;stroke-width:1.5042;stroke-linecap:round;stroke-linejoin:round;stroke-miterlimit:10;}
	
		.st9{clip-path:url(#SVGID_00000128451252761056552770000011323105904237895053_);fill:none;stroke:#231F20;stroke-width:1.5042;stroke-linecap:round;stroke-linejoin:round;stroke-miterlimit:10;}
	
		.st10{clip-path:url(#SVGID_00000163062366975899178020000018089627025404303016_);fill:none;stroke:#231F20;stroke-width:1.5042;stroke-linecap:round;stroke-linejoin:round;stroke-miterlimit:10;}
	
		.st11{clip-path:url(#SVGID_00000139256971347138478160000017125977563449449660_);fill:none;stroke:#231F20;stroke-width:1.5042;stroke-linecap:round;stroke-linejoin:round;stroke-miterlimit:10;}
	
		.st12{clip-path:url(#SVGID_00000054978018174676229730000005062839559718412458_);fill:none;stroke:#231F20;stroke-width:1.5042;stroke-linecap:round;stroke-linejoin:round;stroke-miterlimit:10;}
	.st13{clip-path:url(#SVGID_00000118384555565233860470000011669939507718348928_);fill:#FED100;}
	
		.st14{clip-path:url(#SVGID_00000057862422824058597230000012957206027280713379_);fill:none;stroke:#231F20;stroke-width:1.5042;stroke-linecap:round;stroke-linejoin:round;stroke-miterlimit:10;}
	
		.st15{clip-path:url(#SVGID_00000049197731750375225340000015377962411581605289_);fill:none;stroke:#231F20;stroke-width:1.5042;stroke-linecap:round;stroke-linejoin:round;stroke-miterlimit:10;}
	.st16{clip-path:url(#SVGID_00000144313923299104787080000001083916809213064334_);fill:#FED100;}
	
		.st17{clip-path:url(#SVGID_00000145752287307608321210000015588116916147921321_);fill:none;stroke:#231F20;stroke-width:1.5042;stroke-linecap:round;stroke-linejoin:round;stroke-miterlimit:10;}
	
		.st18{display:inline;fill:#FED100;stroke:#231F20;stroke-width:1.3537;stroke-linecap:round;stroke-linejoin:round;stroke-miterlimit:10;}
	
		.st19{display:inline;fill:none;stroke:#231F20;stroke-width:1.3537;stroke-linecap:round;stroke-linejoin:round;stroke-miterlimit:10;}
	
		.st20{display:inline;clip-path:url(#SVGID_00000074399679244249601360000018197776650085000578_);fill:none;stroke:#231F20;stroke-width:1.3587;stroke-linecap:round;stroke-linejoin:round;stroke-miterlimit:10;}
	.st21{display:inline;clip-path:url(#SVGID_00000074399679244249601360000018197776650085000578_);fill:#FED100;}
	.st22{fill-rule:evenodd;clip-rule:evenodd;}
</style>
<g class="st0">
	<g class="st1">
		<defs>
			<rect id="SVGID_1_" x="9.6" y="2.1" width="30.7" height="45.7"/>
		</defs>
		<clipPath id="SVGID_00000164506121426289288060000001372583364321837740_">
			<use xlink:href="#SVGID_1_"  style="overflow:visible;"/>
		</clipPath>
		<path style="clip-path:url(#SVGID_00000164506121426289288060000001372583364321837740_);fill:#FED100;" d="M20.2,20.2
			c0,0-4.2,0.2-5.9,1.8c-1.7,1.6-2.7,2.5-3.2,6.9s-0.8,6.2-0.8,6.2h4.9v-9.3h19.7l-0.1,8.5l4.9,0.1c0,0-0.5-6.7-1.5-9.3
			s-3.3-3.7-5.3-4.1c-2-0.5-3.2-0.8-3.2-0.8s-0.8,3.4-4.4,3.3C21.6,23.4,20.2,20.2,20.2,20.2"/>
	</g>
	<g class="st1">
		<defs>
			<rect id="SVGID_00000065793438543232533140000009001543198505948584_" x="9.6" y="2.1" width="30.7" height="45.7"/>
		</defs>
		<clipPath id="SVGID_00000065780452165228488270000004806572688600461474_">
			<use xlink:href="#SVGID_00000065793438543232533140000009001543198505948584_"  style="overflow:visible;"/>
		</clipPath>
		
			<line style="clip-path:url(#SVGID_00000065780452165228488270000004806572688600461474_);fill:none;stroke:#231F20;stroke-width:1.5042;stroke-linecap:round;stroke-linejoin:round;stroke-miterlimit:10;" x1="34.9" y1="34.8" x2="39.5" y2="34.8"/>
	</g>
	<g class="st1">
		<defs>
			<rect id="SVGID_00000168832642361911436550000007336537863500923273_" x="9.6" y="2.1" width="30.7" height="45.7"/>
		</defs>
		<clipPath id="SVGID_00000052805705103900899120000012922932247879173810_">
			<use xlink:href="#SVGID_00000168832642361911436550000007336537863500923273_"  style="overflow:visible;"/>
		</clipPath>
		
			<path style="clip-path:url(#SVGID_00000052805705103900899120000012922932247879173810_);fill:none;stroke:#231F20;stroke-width:1.5042;stroke-linecap:round;stroke-linejoin:round;stroke-miterlimit:10;" d="
			M20.1,28.5V32c0,0.8,0.6,1.4,1.4,1.4h1.1c0.8,0,1.4-0.6,1.4-1.4v-3.5"/>
	</g>
	<g class="st1">
		<defs>
			<rect id="SVGID_00000080913797194951310730000011755676387903588017_" x="9.6" y="2.1" width="30.7" height="45.7"/>
		</defs>
		<clipPath id="SVGID_00000110439376515996626760000004651840636917501070_">
			<use xlink:href="#SVGID_00000080913797194951310730000011755676387903588017_"  style="overflow:visible;"/>
		</clipPath>
		
			<line style="clip-path:url(#SVGID_00000110439376515996626760000004651840636917501070_);fill:none;stroke:#231F20;stroke-width:1.5042;stroke-linecap:round;stroke-linejoin:round;stroke-miterlimit:10;" x1="22.1" y1="41.1" x2="22.1" y2="28.5"/>
	</g>
	<g class="st1">
		<defs>
			<rect id="SVGID_00000125573783751349592920000001238186887581007763_" x="9.6" y="2.1" width="30.7" height="45.7"/>
		</defs>
		<clipPath id="SVGID_00000183216200544071871960000012745392705646739629_">
			<use xlink:href="#SVGID_00000125573783751349592920000001238186887581007763_"  style="overflow:visible;"/>
		</clipPath>
		
			<path style="clip-path:url(#SVGID_00000183216200544071871960000012745392705646739629_);fill:none;stroke:#231F20;stroke-width:1.5042;stroke-linecap:round;stroke-linejoin:round;stroke-miterlimit:10;" d="
			M29.9,31.7c0-1.4-0.9-3.2-2-3.2s-2,1.8-2,3.2s0.9,1.8,2,1.8S29.9,33.1,29.9,31.7z"/>
	</g>
	<g class="st1">
		<defs>
			<rect id="SVGID_00000124130322396899356530000013995894113174552495_" x="9.6" y="2.1" width="30.7" height="45.7"/>
		</defs>
		<clipPath id="SVGID_00000059282346871569414870000008839701785364647591_">
			<use xlink:href="#SVGID_00000124130322396899356530000013995894113174552495_"  style="overflow:visible;"/>
		</clipPath>
		
			<line style="clip-path:url(#SVGID_00000059282346871569414870000008839701785364647591_);fill:none;stroke:#231F20;stroke-width:1.5042;stroke-linecap:round;stroke-linejoin:round;stroke-miterlimit:10;" x1="27.9" y1="33.5" x2="27.9" y2="41.1"/>
	</g>
	<g class="st1">
		<defs>
			<rect id="SVGID_00000008109120750509914870000007758859498804417921_" x="9.6" y="2.1" width="30.7" height="45.7"/>
		</defs>
		<clipPath id="SVGID_00000042007320744870419970000009426447863186284957_">
			<use xlink:href="#SVGID_00000008109120750509914870000007758859498804417921_"  style="overflow:visible;"/>
		</clipPath>
		
			<rect x="15.2" y="25.8" style="clip-path:url(#SVGID_00000042007320744870419970000009426447863186284957_);fill:none;stroke:#231F20;stroke-width:1.5042;stroke-linecap:round;stroke-linejoin:round;stroke-miterlimit:10;" width="19.7" height="18"/>
	</g>
	<g class="st1">
		<defs>
			<rect id="SVGID_00000098917914186569818900000001167245544965456051_" x="9.6" y="2.1" width="30.7" height="45.7"/>
		</defs>
		<clipPath id="SVGID_00000127755670966749213130000012084285262912302253_">
			<use xlink:href="#SVGID_00000098917914186569818900000001167245544965456051_"  style="overflow:visible;"/>
		</clipPath>
		
			<path style="clip-path:url(#SVGID_00000127755670966749213130000012084285262912302253_);fill:none;stroke:#231F20;stroke-width:1.5042;stroke-linecap:round;stroke-linejoin:round;stroke-miterlimit:10;" d="
			M20.2,20.2c0.1,1.9,2.2,3.5,4.7,3.5s4.6-1.5,4.7-3.5"/>
	</g>
	<g class="st1">
		<defs>
			<rect id="SVGID_00000040576178532373821180000002760894185092623518_" x="9.6" y="2.1" width="30.7" height="45.7"/>
		</defs>
		<clipPath id="SVGID_00000129181255183904167450000018239996787844770237_">
			<use xlink:href="#SVGID_00000040576178532373821180000002760894185092623518_"  style="overflow:visible;"/>
		</clipPath>
		
			<path style="clip-path:url(#SVGID_00000129181255183904167450000018239996787844770237_);fill:none;stroke:#231F20;stroke-width:1.5042;stroke-linecap:round;stroke-linejoin:round;stroke-miterlimit:10;" d="
			M22.8,18.3v1.8h-0.2c0,0-1-0.1-2.4,0.1c-2.7,0.3-6.9,1.3-8.3,4.9c-1,2.5-3.3,19.5,1.2,21.6c4.1,1.9,5.9-2.8,5.9-2.8"/>
	</g>
	<g class="st1">
		<defs>
			<rect id="SVGID_00000043438396293687684400000010488898996372093882_" x="9.6" y="2.1" width="30.7" height="45.7"/>
		</defs>
		<clipPath id="SVGID_00000150074170104182019390000002792296399860641725_">
			<use xlink:href="#SVGID_00000043438396293687684400000010488898996372093882_"  style="overflow:visible;"/>
		</clipPath>
		
			<path style="clip-path:url(#SVGID_00000150074170104182019390000002792296399860641725_);fill:none;stroke:#231F20;stroke-width:1.5042;stroke-linecap:round;stroke-linejoin:round;stroke-miterlimit:10;" d="
			M27,18.3v1.8h0.4c0,0,0.9-0.1,2.2,0.1c2.7,0.2,7,1.2,8.5,4.9c1,2.5,3.3,19.5-1.2,21.6c-4.1,1.9-5.9-2.8-5.9-2.8"/>
	</g>
	<g class="st1">
		<defs>
			<rect id="SVGID_00000041273349009769005180000016717183914266789273_" x="9.6" y="2.1" width="30.7" height="45.7"/>
		</defs>
		<clipPath id="SVGID_00000057117592346593605070000016667244284251257480_">
			<use xlink:href="#SVGID_00000041273349009769005180000016717183914266789273_"  style="overflow:visible;"/>
		</clipPath>
		
			<path style="clip-path:url(#SVGID_00000057117592346593605070000016667244284251257480_);fill:none;stroke:#231F20;stroke-width:1.5042;stroke-linecap:round;stroke-linejoin:round;stroke-miterlimit:10;" d="
			M31.2,8.8c0.4,0.9,0.6,1.8,0.6,2.9c0,3.8-3.1,6.9-6.9,6.9S18,15.5,18,11.7c0-0.4,0-0.7,0.1-1.1"/>
	</g>
	<g class="st1">
		<defs>
			<rect id="SVGID_00000111870934018349039810000001588293244205628555_" x="9.6" y="2.1" width="30.7" height="45.7"/>
		</defs>
		<clipPath id="SVGID_00000098203932496005747850000006922023519789262764_">
			<use xlink:href="#SVGID_00000111870934018349039810000001588293244205628555_"  style="overflow:visible;"/>
		</clipPath>
		<path style="clip-path:url(#SVGID_00000098203932496005747850000006922023519789262764_);fill:#FED100;" d="M31.2,8.8
			c0,0-9.3,2.8-14,1.6c-3.6-0.9,1.5-2.7,1.5-2.7"/>
	</g>
	<g class="st1">
		<defs>
			<rect id="SVGID_00000016757412675598810390000014089030069496848816_" x="9.6" y="2.1" width="30.7" height="45.7"/>
		</defs>
		<clipPath id="SVGID_00000152257962833877748430000001477580641839723401_">
			<use xlink:href="#SVGID_00000016757412675598810390000014089030069496848816_"  style="overflow:visible;"/>
		</clipPath>
		
			<path style="clip-path:url(#SVGID_00000152257962833877748430000001477580641839723401_);fill:none;stroke:#231F20;stroke-width:1.5042;stroke-linecap:round;stroke-linejoin:round;stroke-miterlimit:10;" d="
			M31.2,8.8c0,0-9.3,2.8-14,1.6c-3.6-0.9,1.5-2.7,1.5-2.7"/>
	</g>
	<g class="st1">
		<defs>
			<rect id="SVGID_00000126320858491543367270000005500874068281727891_" x="9.6" y="2.1" width="30.7" height="45.7"/>
		</defs>
		<clipPath id="SVGID_00000134938259522965110800000017900326773295868587_">
			<use xlink:href="#SVGID_00000126320858491543367270000005500874068281727891_"  style="overflow:visible;"/>
		</clipPath>
		
			<line style="clip-path:url(#SVGID_00000134938259522965110800000017900326773295868587_);fill:none;stroke:#231F20;stroke-width:1.5042;stroke-linecap:round;stroke-linejoin:round;stroke-miterlimit:10;" x1="10.5" y1="34.8" x2="15.2" y2="34.8"/>
	</g>
	<g class="st1">
		<defs>
			<rect id="SVGID_00000049917888073936009780000006912419489039269015_" x="9.6" y="2.1" width="30.7" height="45.7"/>
		</defs>
		<clipPath id="SVGID_00000161611128057753272710000006270411856869309331_">
			<use xlink:href="#SVGID_00000049917888073936009780000006912419489039269015_"  style="overflow:visible;"/>
		</clipPath>
		<path style="clip-path:url(#SVGID_00000161611128057753272710000006270411856869309331_);fill:#FED100;" d="M20.1,8.4
			c-0.6,0-1.4-0.2-1.4-0.7c0-1.7,1.5-4.9,6.2-4.9c6.6,0,6.3,5.9,6.3,5.9L20.1,8.4z"/>
	</g>
	<g class="st1">
		<defs>
			<rect id="SVGID_00000142147081139105309940000004055063053238928292_" x="9.6" y="2.1" width="30.7" height="45.7"/>
		</defs>
		<clipPath id="SVGID_00000111168327892716112140000002844861829525367222_">
			<use xlink:href="#SVGID_00000142147081139105309940000004055063053238928292_"  style="overflow:visible;"/>
		</clipPath>
		
			<path style="clip-path:url(#SVGID_00000111168327892716112140000002844861829525367222_);fill:none;stroke:#231F20;stroke-width:1.5042;stroke-linecap:round;stroke-linejoin:round;stroke-miterlimit:10;" d="
			M20.1,8.4c-0.6,0-1.4-0.2-1.4-0.7c0-1.7,1.5-4.9,6.2-4.9c6.6,0,6.3,5.9,6.3,5.9L20.1,8.4z"/>
	</g>
</g>
<g class="st0">
	<rect x="10.4" y="23.5" class="st18" width="29" height="16.5"/>
	<polygon class="st19" points="10.5,7 6.5,17.1 13.4,17.1 15.9,7 	"/>
	<polygon class="st19" points="15.9,7 13.4,17.1 20.7,17.1 22.2,7 	"/>
	<polygon class="st19" points="39.4,7 43.4,17.1 36.5,17.1 34,7 	"/>
	<polygon class="st19" points="34,7 36.5,17.1 29.2,17.1 27.7,7 	"/>
	<polygon class="st19" points="22.2,7 27.7,7 29.2,17.1 20.7,17.1 	"/>
	<path class="st19" d="M13.4,17.1c0,1.9-1.5,3.5-3.5,3.5c-1.9,0-3.5-1.5-3.5-3.5H13.4z"/>
	<path class="st19" d="M20.7,17.1c0,2-1.6,3.7-3.7,3.7s-3.7-1.6-3.7-3.7H20.7z"/>
	<path class="st19" d="M36.5,17.1c0,1.9,1.5,3.5,3.5,3.5s3.5-1.5,3.5-3.5H36.5z"/>
	<path class="st19" d="M29.2,17.1c0,2,1.6,3.7,3.7,3.7s3.7-1.6,3.7-3.7H29.2z"/>
	<path class="st19" d="M20.7,17.1c0,2.2,1.9,4,4.2,4s4.2-1.8,4.2-4H20.7z"/>
	<polyline class="st19" points="7.9,19.9 7.9,42.9 42,42.9 42,19.9 	"/>
</g>
<g class="st0">
	<path class="st1" d="M17.3,35.8L15,31.3h0l0.3,1.4v3.1h-1.5v-6l-0.2-1.1l1.5-0.1l2.3,4.4h0l-0.3-1.2v-3.1l1.5-0.1v7.2H17.3z"/>
	<path class="st1" d="M24.6,34.7l-0.1,1.1h-4.5l0.1-1.1v-4.9l-0.2-1.1h4.6v1.1h-2.8l0.1,0.7v1h2.4v1h-2.4v1.6l0,0.6H24.6z"/>
	<path class="st1" d="M29.6,35.8l-2.3-4.5h0l0.3,1.4v3.1H26v-6l-0.2-1.1l1.5-0.1l2.3,4.4h0l-0.3-1.2v-3.1l1.5-0.1v7.2H29.6z"/>
	<path class="st1" d="M36.9,34.7l-0.1,1.1h-4.5l0.1-1.1v-4.9l-0.2-1.1h4.6v1.1h-2.8l0.1,0.7v1h2.4v1H34v1.6l0,0.6H36.9z"/>
</g>
<g class="st0">
	<defs>
		<rect id="SVGID_00000072242783392265524430000002798527365884400281_" x="1.9" y="14.4" width="46.4" height="23.4"/>
	</defs>
	<clipPath id="SVGID_00000058583668622109718880000003609794486929636763_" class="st1">
		<use xlink:href="#SVGID_00000072242783392265524430000002798527365884400281_"  style="overflow:visible;"/>
	</clipPath>
	
		<path style="display:inline;clip-path:url(#SVGID_00000058583668622109718880000003609794486929636763_);fill:none;stroke:#231F20;stroke-width:1.3587;stroke-linecap:round;stroke-linejoin:round;stroke-miterlimit:10;" d="
		M2.6,37.1l20.6,0c3.7-0.2,6.4-2.9,6.4-2.9l7.1-6.8c0.9-0.9,0-4.1-2.1-2.3L33.5,26l-3.4,2.5c-1.6,1.2-3.4,1.8-5.4,1.8h-0.5
		c2.4,0,2.5-3.3-0.6-3.3h-5.4c-3.6-0.2-3.7,2.4-7.1,2.6c-0.2,0-0.3,0-0.5,0l-8-0.8"/>
	
		<line style="display:inline;clip-path:url(#SVGID_00000058583668622109718880000003609794486929636763_);fill:none;stroke:#231F20;stroke-width:1.3587;stroke-linecap:round;stroke-linejoin:round;stroke-miterlimit:10;" x1="24.2" y1="30.4" x2="19.9" y2="30.4"/>
	
		<rect x="14.7" y="15.1" style="display:inline;clip-path:url(#SVGID_00000058583668622109718880000003609794486929636763_);fill:#FED100;" width="32.9" height="5.6"/>
	
		<rect x="14.7" y="15.1" style="display:inline;clip-path:url(#SVGID_00000058583668622109718880000003609794486929636763_);fill:none;stroke:#231F20;stroke-width:1.3587;stroke-linecap:round;stroke-linejoin:round;stroke-miterlimit:10;" width="32.9" height="5.6"/>
	
		<polygon style="display:inline;clip-path:url(#SVGID_00000058583668622109718880000003609794486929636763_);fill:none;stroke:#231F20;stroke-width:1.3587;stroke-linecap:round;stroke-linejoin:round;stroke-miterlimit:10;" points="
		36.3,15.1 25.9,15.1 26.6,17.3 35.6,17.3 	"/>
</g>
<path class="st22" d="M34.6,28L34.6,28L15.4,47.2l-3-3L31.6,25L12.4,5.8l3-3L37.6,25L34.6,28z"/>
</svg>
