<?xml version="1.0" encoding="utf-8"?>
<!-- Generator: Adobe Illustrator 27.9.4, SVG Export Plug-In . SVG Version: 9.03 Build 54784)  -->
<svg version="1.1" id="레이어_1" xmlns="http://www.w3.org/2000/svg" xmlns:xlink="http://www.w3.org/1999/xlink" x="0px"
	 y="0px" width="50px" height="50px" viewBox="0 0 50 50" style="enable-background:new 0 0 50 50;" xml:space="preserve">
<style type="text/css">
	.st0{clip-path:url(#SVGID_00000055695330536794680930000005106822987717884804_);fill:#FED100;}
	
		.st1{clip-path:url(#SVGID_00000055695330536794680930000005106822987717884804_);fill:none;stroke:#231F20;stroke-width:1.5042;stroke-linecap:round;stroke-linejoin:round;stroke-miterlimit:10;}
</style>
<g>
	<defs>
		<rect id="SVGID_1_" x="9.6" y="2.1" width="30.7" height="45.7"/>
	</defs>
	<clipPath id="SVGID_00000019645483884601832730000002893032909411824526_">
		<use xlink:href="#SVGID_1_"  style="overflow:visible;"/>
	</clipPath>
	<path style="clip-path:url(#SVGID_00000019645483884601832730000002893032909411824526_);fill:#FED100;" d="M20.2,20.2
		c0,0-4.2,0.2-5.9,1.8c-1.7,1.6-2.7,2.5-3.2,6.9c-0.5,4.4-0.8,6.2-0.8,6.2l4.9,0l0-9.3h19.7l-0.1,8.5l4.9,0.1c0,0-0.5-6.7-1.5-9.3
		c-1-2.6-3.3-3.7-5.3-4.1c-2-0.5-3.2-0.8-3.2-0.8s-0.8,3.4-4.4,3.3C21.6,23.4,20.2,20.2,20.2,20.2"/>
	
		<line style="clip-path:url(#SVGID_00000019645483884601832730000002893032909411824526_);fill:none;stroke:#231F20;stroke-width:1.5042;stroke-linecap:round;stroke-linejoin:round;stroke-miterlimit:10;" x1="34.9" y1="34.8" x2="39.5" y2="34.8"/>
	
		<path style="clip-path:url(#SVGID_00000019645483884601832730000002893032909411824526_);fill:none;stroke:#231F20;stroke-width:1.5042;stroke-linecap:round;stroke-linejoin:round;stroke-miterlimit:10;" d="
		M20.1,28.5v3.5c0,0.8,0.6,1.4,1.4,1.4h1.1c0.8,0,1.4-0.6,1.4-1.4v-3.5"/>
	
		<line style="clip-path:url(#SVGID_00000019645483884601832730000002893032909411824526_);fill:none;stroke:#231F20;stroke-width:1.5042;stroke-linecap:round;stroke-linejoin:round;stroke-miterlimit:10;" x1="22.1" y1="41.1" x2="22.1" y2="28.5"/>
	
		<path style="clip-path:url(#SVGID_00000019645483884601832730000002893032909411824526_);fill:none;stroke:#231F20;stroke-width:1.5042;stroke-linecap:round;stroke-linejoin:round;stroke-miterlimit:10;" d="
		M29.9,31.7c0-1.4-0.9-3.2-2-3.2c-1.1,0-2,1.8-2,3.2c0,1.4,0.9,1.8,2,1.8C29,33.5,29.9,33.1,29.9,31.7z"/>
	
		<line style="clip-path:url(#SVGID_00000019645483884601832730000002893032909411824526_);fill:none;stroke:#231F20;stroke-width:1.5042;stroke-linecap:round;stroke-linejoin:round;stroke-miterlimit:10;" x1="27.9" y1="33.5" x2="27.9" y2="41.1"/>
	
		<rect x="15.2" y="25.8" style="clip-path:url(#SVGID_00000019645483884601832730000002893032909411824526_);fill:none;stroke:#231F20;stroke-width:1.5042;stroke-linecap:round;stroke-linejoin:round;stroke-miterlimit:10;" width="19.7" height="18"/>
	
		<path style="clip-path:url(#SVGID_00000019645483884601832730000002893032909411824526_);fill:none;stroke:#231F20;stroke-width:1.5042;stroke-linecap:round;stroke-linejoin:round;stroke-miterlimit:10;" d="
		M20.2,20.2c0.1,1.9,2.2,3.5,4.7,3.5c2.5,0,4.6-1.5,4.7-3.5"/>
	
		<path style="clip-path:url(#SVGID_00000019645483884601832730000002893032909411824526_);fill:none;stroke:#231F20;stroke-width:1.5042;stroke-linecap:round;stroke-linejoin:round;stroke-miterlimit:10;" d="
		M22.8,18.3v1.8h-0.2c0,0-1-0.1-2.4,0.1c-2.7,0.3-6.9,1.3-8.3,4.9c-1,2.5-3.3,19.5,1.2,21.6c4.1,1.9,5.9-2.8,5.9-2.8"/>
	
		<path style="clip-path:url(#SVGID_00000019645483884601832730000002893032909411824526_);fill:none;stroke:#231F20;stroke-width:1.5042;stroke-linecap:round;stroke-linejoin:round;stroke-miterlimit:10;" d="
		M27,18.3v1.8h0.4c0,0,0.9-0.1,2.2,0.1c2.7,0.2,7,1.2,8.5,4.9c1,2.5,3.3,19.5-1.2,21.6c-4.1,1.9-5.9-2.8-5.9-2.8"/>
	
		<path style="clip-path:url(#SVGID_00000019645483884601832730000002893032909411824526_);fill:none;stroke:#231F20;stroke-width:1.5042;stroke-linecap:round;stroke-linejoin:round;stroke-miterlimit:10;" d="
		M31.2,8.8c0.4,0.9,0.6,1.8,0.6,2.9c0,3.8-3.1,6.9-6.9,6.9c-3.8,0-6.9-3.1-6.9-6.9c0-0.4,0-0.7,0.1-1.1"/>
	<path style="clip-path:url(#SVGID_00000019645483884601832730000002893032909411824526_);fill:#FED100;" d="M31.2,8.8
		c0,0-9.3,2.8-14,1.6c-3.6-0.9,1.5-2.7,1.5-2.7"/>
	
		<path style="clip-path:url(#SVGID_00000019645483884601832730000002893032909411824526_);fill:none;stroke:#231F20;stroke-width:1.5042;stroke-linecap:round;stroke-linejoin:round;stroke-miterlimit:10;" d="
		M31.2,8.8c0,0-9.3,2.8-14,1.6c-3.6-0.9,1.5-2.7,1.5-2.7"/>
	
		<line style="clip-path:url(#SVGID_00000019645483884601832730000002893032909411824526_);fill:none;stroke:#231F20;stroke-width:1.5042;stroke-linecap:round;stroke-linejoin:round;stroke-miterlimit:10;" x1="10.5" y1="34.8" x2="15.2" y2="34.8"/>
	<path style="clip-path:url(#SVGID_00000019645483884601832730000002893032909411824526_);fill:#FED100;" d="M20.1,8.4
		c-0.6,0-1.4-0.2-1.4-0.7c0-1.7,1.5-4.9,6.2-4.9c6.6,0,6.3,5.9,6.3,5.9L20.1,8.4z"/>
	
		<path style="clip-path:url(#SVGID_00000019645483884601832730000002893032909411824526_);fill:none;stroke:#231F20;stroke-width:1.5042;stroke-linecap:round;stroke-linejoin:round;stroke-miterlimit:10;" d="
		M20.1,8.4c-0.6,0-1.4-0.2-1.4-0.7c0-1.7,1.5-4.9,6.2-4.9c6.6,0,6.3,5.9,6.3,5.9L20.1,8.4z"/>
</g>
</svg>
