<?xml version="1.0" encoding="utf-8"?>
<!-- Generator: Adobe Illustrator 27.9.6, SVG Export Plug-In . SVG Version: 9.03 Build 54986)  -->
<svg version="1.1" id="레이어_1" xmlns="http://www.w3.org/2000/svg" xmlns:xlink="http://www.w3.org/1999/xlink" x="0px"
	 y="0px" width="30px" height="30px" viewBox="0 0 30 30" style="enable-background:new 0 0 30 30;" xml:space="preserve">
<style type="text/css">
	.st0{fill-rule:evenodd;clip-rule:evenodd;fill:#955516;}
</style>
<path class="st0" d="M14.2,7L9.8,2.7C9.2,2,8.2,2,7.6,2.7L6.1,4.1c-3.2,3.2-3.8,8.3-1.4,12.1C7.3,20.4,11,24,15.2,26.6
	c3.9,2.4,8.9,1.8,12.1-1.4l1.5-1.5c0.6-0.6,0.6-1.7,0-2.3l-4.4-4.3c-0.6-0.6-1.6-0.6-2.3,0l-2.6,2.6c-0.5,0.5-1.3,0.5-1.7,0
	l-6.2-6.2c-0.5-0.5-0.5-1.3,0-1.8l2.6-2.5C14.8,8.6,14.8,7.6,14.2,7L14.2,7z"/>
</svg>
