<?xml version="1.0" encoding="utf-8"?>
<!-- Generator: Adobe Illustrator 27.9.6, SVG Export Plug-In . SVG Version: 9.03 Build 54986)  -->
<svg version="1.1" id="레이어_1" xmlns="http://www.w3.org/2000/svg" xmlns:xlink="http://www.w3.org/1999/xlink" x="0px"
	 y="0px" width="30px" height="30px" viewBox="0 0 30 30" style="enable-background:new 0 0 30 30;" xml:space="preserve">
<style type="text/css">
	.st0{fill-rule:evenodd;clip-rule:evenodd;fill:#FFD100;}
</style>
<path class="st0" d="M13.4,1.7L1.8,11.9V26c0,1.6,1.3,2.8,2.8,2.8h4.6c1.3,0,2.3-1,2.3-2.3v-6.1c0-0.7,0.6-1.3,1.4-1.3h4.6
	c0.7,0,1.4,0.6,1.4,1.3v6.1c0,1.3,1,2.3,2.3,2.3h4.1c1.6,0,2.8-1.3,2.8-2.8V11.9L16.6,1.7C15.6,1,14.4,1,13.4,1.7L13.4,1.7z"/>
</svg>
