<?xml version="1.0" encoding="utf-8"?>
<!-- Generator: Adobe Illustrator 27.9.6, SVG Export Plug-In . SVG Version: 9.03 Build 54986)  -->
<svg version="1.1" id="레이어_1" xmlns="http://www.w3.org/2000/svg" xmlns:xlink="http://www.w3.org/1999/xlink" x="0px"
	 y="0px" width="150px" height="66px" viewBox="0 0 150 66" style="enable-background:new 0 0 150 66;" xml:space="preserve">
<style type="text/css">
	.st0{fill:#4F2700;}
	.st1{fill:#FFFFFF;}
</style>
<g>
	<polygon class="st0" points="77.6,10.9 77.9,4.7 1.8,4.7 7.4,46.4 42.6,44.2 60.8,52.7 60.8,43.1 76.2,42.2 72,10.9 	"/>
	<g>
		<g>
			<g>
				<rect x="34.7" y="12.3" class="st1" width="4.9" height="23.6"/>
			</g>
			<polygon class="st1" points="21,31.1 21,12.3 15.1,12.3 15.1,35.9 26.5,35.9 26.5,30.6 			"/>
			<polygon class="st1" points="28.2,12.3 28.2,20.5 23.9,20.5 23.9,25.6 28.2,25.6 28.2,35.9 33,35.9 33,12.3 			"/>
		</g>
		<g>
			<g>
				<g>
					<rect x="62.4" y="12.3" class="st1" width="4.9" height="23.6"/>
				</g>
			</g>
			<polygon class="st1" points="48.7,31.1 48.7,12.3 42.9,12.3 42.9,35.9 54.2,35.9 54.2,30.6 			"/>
			<polygon class="st1" points="55.9,12.3 55.9,20.5 51.6,20.5 51.6,25.6 55.9,25.6 55.9,35.9 60.8,35.9 60.8,12.3 			"/>
		</g>
	</g>
	<path class="st0" d="M51.6,20"/>
	<g>
		<polygon class="st1" points="77.6,52.7 87.7,52 87.7,60.7 104,51 146.4,48.4 148.1,10.9 72,10.9 		"/>
	</g>
	<g>
		<g>
			<g>
				<path class="st0" d="M109.6,19v23.6h-5.9V19H109.6z"/>
			</g>
			<path class="st0" d="M102.2,37.9l-7-6c0.6-1.7,1-3.4,1-5v-0.3h5.3v-5.1h-5.3V18l-5.8,0.4v3.2h-5.6v5.1h5.6v0.3
				c0,3.9-2.7,8.2-6.3,11.1l-0.2,0.2l3.8,4.1c2.1-1.7,3.7-3.6,5-5.6l5.8,5.5L102.2,37.9z"/>
		</g>
		<g>
			<polygon class="st0" points="121.5,33.9 127.3,33.9 128,19 112.9,19 112.9,23.4 122,23.4 121.9,25.3 112.9,25.3 112.9,29.6 
				121.7,29.6 			"/>
			<rect x="130.5" y="19" class="st0" width="5.9" height="15.7"/>
			<polygon class="st0" points="119.8,34 114,34 114,42.6 136.6,42.6 136.6,37.1 119.8,38.2 			"/>
		</g>
	</g>
	<g>
		<path class="st0" d="M10.2,60.9l-2.8-4.7h2.7l1.2,2.2h0.1l1.2-2.2h2.7l-2.8,4.7v2.6h-2.4V60.9z"/>
		<path class="st0" d="M15.8,56.2H22v1.9h-3.8v0.8H22v1.9h-3.8v0.8H22v1.9h-6.2V56.2z"/>
		<path class="st0" d="M22.8,61.6h3.9c0.4,0,0.5-0.1,0.5-0.4c0-0.3-0.2-0.4-0.5-0.4H25c-1.3,0-2.3-0.8-2.3-2.3c0-1.5,1-2.3,2.3-2.3
			h4.2v1.9h-3.7c-0.3,0-0.5,0.1-0.5,0.4c0,0.3,0.2,0.4,0.5,0.4h1.8c1.4,0,2.3,0.8,2.3,2.2c0,1.4-0.9,2.3-2.3,2.3h-4.4V61.6z"/>
		<path class="st0" d="M36.1,56.2h2.5l0.8,4.4h0.1l1.5-2.5h0.1l1.5,2.5h0.1l0.8-4.4h2.5l-1.5,7.3h-2.3l-1.2-1.8H41l-1.2,1.8h-2.3
			L36.1,56.2z"/>
		<path class="st0" d="M46.7,56.2h6.2v1.9H49v0.8h3.8v1.9H49v0.8h3.8v1.9h-6.2V56.2z"/>
		<path class="st0" d="M57,56.2h4l1.8,7.3h-2.4l-0.3-1.1h-2.3l-0.3,1.1h-2.4L57,56.2z M58.2,60.5h1.4l-0.6-2.5h-0.2L58.2,60.5z"/>
		<path class="st0" d="M63.4,56.2h4.7c1.6,0,2.6,0.9,2.6,2.4c0,1-0.5,1.7-1.2,2l1.1,2.8h-2.5l-0.9-2.6h-1.5v2.6h-2.2V56.2z
			 M67.6,59.3c0.4,0,0.7-0.2,0.7-0.6c0-0.4-0.3-0.6-0.7-0.6h-1.9v1.2H67.6z"/>
		<path class="st0" d="M71.5,56.2h6.2v1.9h-3.8v0.8h3.8v1.9h-3.8v0.8h3.8v1.9h-6.2V56.2z"/>
		<g>
			<path class="st0" d="M31.1,63.2c-0.2-0.2-0.3-0.5-0.3-0.8c0-0.3,0.1-0.6,0.3-0.8c0.2-0.2,0.5-0.3,0.9-0.3c0.3,0,0.6,0.1,0.9,0.3
				c0.2,0.2,0.3,0.5,0.3,0.8c0,0.3-0.1,0.6-0.3,0.8c-0.2,0.2-0.5,0.3-0.8,0.3C31.7,63.6,31.4,63.5,31.1,63.2z M30.3,56.1h3.4
				l-0.9,4.7h-1.6L30.3,56.1z"/>
		</g>
	</g>
</g>
</svg>
