<?xml version="1.0" encoding="utf-8"?>
<!-- Generator: Adobe Illustrator 27.9.4, SVG Export Plug-In . SVG Version: 9.03 Build 54784)  -->
<svg version="1.1" id="레이어_1" xmlns="http://www.w3.org/2000/svg" xmlns:xlink="http://www.w3.org/1999/xlink" x="0px"
	 y="0px" width="150px" height="66px" viewBox="0 0 150 66" style="enable-background:new 0 0 150 66;" xml:space="preserve">
<style type="text/css">
	.st0{fill:#4F2700;}
	.st1{fill:#FFFFFF;}
	.st2{fill:#FED600;}
</style>
<g>
	<polygon class="st0" points="77.6,11.4 77.8,5.5 5.2,5.5 10.5,45.3 44.1,43.2 61.4,51.3 61.4,42.2 76.2,41.2 72.2,11.4 	"/>
	<g>
		<g>
			<g>
				<rect x="36.5" y="12.7" class="st1" width="4.7" height="22.5"/>
			</g>
			<polygon class="st1" points="23.5,30.7 23.5,12.7 17.9,12.7 17.9,35.3 28.7,35.3 28.7,30.2 			"/>
			<polygon class="st1" points="30.3,12.7 30.3,20.6 26.2,20.6 26.2,25.4 30.3,25.4 30.3,35.3 35,35.3 35,12.7 			"/>
		</g>
		<g>
			<g>
				<g>
					<rect x="63" y="12.7" class="st1" width="4.7" height="22.5"/>
				</g>
			</g>
			<polygon class="st1" points="50,30.7 50,12.7 44.3,12.7 44.3,35.3 55.2,35.3 55.2,30.2 			"/>
			<polygon class="st1" points="56.8,12.7 56.8,20.6 52.7,20.6 52.7,25.4 56.8,25.4 56.8,35.3 61.4,35.3 61.4,12.7 			"/>
		</g>
	</g>
	<path class="st0" d="M52.7,20.1"/>
	<g>
		<polygon class="st2" points="77.5,51.3 87.2,50.7 87.2,58.9 102.7,49.7 143.2,47.2 144.8,11.4 72.2,11.4 		"/>
	</g>
	<g>
		<g>
			<g>
				<path class="st0" d="M108,19.1v22.5h-5.6V19.1H108z"/>
			</g>
			<path class="st0" d="M101,37.2l-6.7-5.7c0.6-1.6,1-3.3,1-4.8v-0.3h5v-4.8h-5.1v-3.4l-5.5,0.3v3h-5.3v4.8h5.4v0.3
				c0,3.7-2.5,7.8-6,10.6l-0.2,0.1l3.7,4c2-1.6,3.5-3.5,4.8-5.3l5.6,5.2L101,37.2z"/>
		</g>
		<g>
			<polygon class="st0" points="119.4,33.3 125,33.3 125.6,19.1 111.2,19.1 111.2,23.3 119.9,23.3 119.8,25.2 111.2,25.2 
				111.2,29.3 119.6,29.3 			"/>
			<rect x="128" y="19.1" class="st0" width="5.6" height="15"/>
			<polygon class="st0" points="117.8,33.4 112.2,33.4 112.2,41.6 133.9,41.6 133.9,36.4 117.8,37.4 			"/>
		</g>
	</g>
	<g>
		<path class="st0" d="M13.2,59.1l-2.7-4.5h2.6l1.1,2.1h0.1l1.1-2.1h2.6l-2.7,4.5v2.5h-2.3V59.1z"/>
		<path class="st0" d="M18.5,54.6h5.9v1.8h-3.6v0.8h3.6V59h-3.6v0.8h3.6v1.8h-5.9V54.6z"/>
		<path class="st0" d="M25.2,59.8h3.7c0.4,0,0.5-0.1,0.5-0.4c0-0.3-0.1-0.4-0.5-0.4h-1.7c-1.3,0-2.2-0.8-2.2-2.2
			c0-1.5,0.9-2.2,2.2-2.2h4v1.8h-3.6c-0.3,0-0.5,0.1-0.5,0.4c0,0.3,0.2,0.4,0.5,0.4h1.7c1.3,0,2.2,0.8,2.2,2.1
			c0,1.3-0.9,2.2-2.2,2.2h-4.2V59.8z"/>
		<path class="st0" d="M37.9,54.6h2.4l0.8,4.2h0.1l1.5-2.4h0.1l1.5,2.4h0.1l0.8-4.2h2.4L46,61.6h-2.2l-1.1-1.7h-0.1l-1.1,1.7h-2.2
			L37.9,54.6z"/>
		<path class="st0" d="M48,54.6h5.9v1.8h-3.6v0.8h3.6V59h-3.6v0.8h3.6v1.8H48V54.6z"/>
		<path class="st0" d="M57.8,54.6h3.8l1.7,6.9h-2.3l-0.3-1.1h-2.2l-0.3,1.1h-2.3L57.8,54.6z M59,58.8h1.4l-0.6-2.4h-0.2L59,58.8z"/>
		<path class="st0" d="M64,54.6h4.5c1.5,0,2.5,0.9,2.5,2.3c0,1-0.4,1.6-1.2,2l1.1,2.7h-2.4l-0.9-2.5h-1.4v2.5H64V54.6z M67.9,57.6
			c0.4,0,0.7-0.1,0.7-0.6c0-0.4-0.3-0.6-0.7-0.6h-1.8v1.1H67.9z"/>
		<path class="st0" d="M71.7,54.6h5.9v1.8h-3.6v0.8h3.6V59h-3.6v0.8h3.6v1.8h-5.9V54.6z"/>
		<g>
			<path class="st0" d="M33.2,61.4c-0.2-0.2-0.3-0.5-0.3-0.7c0-0.3,0.1-0.5,0.3-0.7c0.2-0.2,0.5-0.3,0.8-0.3c0.3,0,0.6,0.1,0.8,0.3
				c0.2,0.2,0.3,0.4,0.3,0.7c0,0.3-0.1,0.5-0.3,0.7c-0.2,0.2-0.5,0.3-0.8,0.3C33.7,61.7,33.4,61.6,33.2,61.4z M32.4,54.6h3.2
				L34.7,59h-1.5L32.4,54.6z"/>
		</g>
	</g>
</g>
</svg>
