<?xml version="1.0" encoding="utf-8"?>
<!-- Generator: Adobe Illustrator 27.9.4, SVG Export Plug-In . SVG Version: 9.03 Build 54784)  -->
<svg version="1.1" id="레이어_1" xmlns="http://www.w3.org/2000/svg" xmlns:xlink="http://www.w3.org/1999/xlink" x="0px"
	 y="0px" width="150px" height="66px" viewBox="0 0 150 66" style="enable-background:new 0 0 150 66;" xml:space="preserve">
<style type="text/css">
	.st0{display:none;}
	.st1{display:inline;fill:#4F2700;}
	.st2{display:inline;}
	.st3{fill:#FFFFFF;}
	.st4{fill:#FED600;}
	.st5{fill:#4F2700;}
</style>
<g class="st0">
	<polygon class="st1" points="77.6,11.4 77.8,5.5 5.2,5.5 10.5,45.3 44.1,43.2 61.4,51.3 61.4,42.2 76.2,41.2 72.2,11.4 	"/>
	<g class="st2">
		<g>
			<g>
				<rect x="36.5" y="12.7" class="st3" width="4.7" height="22.5"/>
			</g>
			<polygon class="st3" points="23.5,30.7 23.5,12.7 17.9,12.7 17.9,35.3 28.7,35.3 28.7,30.2 			"/>
			<polygon class="st3" points="30.3,12.7 30.3,20.6 26.2,20.6 26.2,25.4 30.3,25.4 30.3,35.3 35,35.3 35,12.7 			"/>
		</g>
		<g>
			<g>
				<g>
					<rect x="63" y="12.7" class="st3" width="4.7" height="22.5"/>
				</g>
			</g>
			<polygon class="st3" points="50,30.7 50,12.7 44.3,12.7 44.3,35.3 55.2,35.3 55.2,30.2 			"/>
			<polygon class="st3" points="56.8,12.7 56.8,20.6 52.7,20.6 52.7,25.4 56.8,25.4 56.8,35.3 61.4,35.3 61.4,12.7 			"/>
		</g>
	</g>
	<path class="st1" d="M52.7,20.1"/>
	<g class="st2">
		<polygon class="st4" points="77.5,51.3 87.2,50.7 87.2,58.9 102.7,49.7 143.2,47.2 144.8,11.4 72.2,11.4 		"/>
	</g>
	<g class="st2">
		<g>
			<g>
				<path class="st5" d="M108,19.1v22.5h-5.6V19.1H108z"/>
			</g>
			<path class="st5" d="M101,37.2l-6.7-5.7c0.6-1.6,1-3.3,1-4.8v-0.3h5v-4.8h-5.1v-3.4l-5.5,0.3v3h-5.3v4.8h5.4v0.3
				c0,3.7-2.5,7.8-6,10.6l-0.2,0.1l3.7,4c2-1.6,3.5-3.5,4.8-5.3l5.6,5.2L101,37.2z"/>
		</g>
		<g>
			<polygon class="st5" points="119.4,33.3 125,33.3 125.6,19.1 111.2,19.1 111.2,23.3 119.9,23.3 119.8,25.2 111.2,25.2 
				111.2,29.3 119.6,29.3 			"/>
			<rect x="128" y="19.1" class="st5" width="5.6" height="15"/>
			<polygon class="st5" points="117.8,33.4 112.2,33.4 112.2,41.6 133.9,41.6 133.9,36.4 117.8,37.4 			"/>
		</g>
	</g>
	<g class="st2">
		<path class="st5" d="M13.2,59.1l-2.7-4.5h2.6l1.1,2.1h0.1l1.1-2.1H18l-2.7,4.5v2.5H13v-2.5H13.2z"/>
		<path class="st5" d="M18.5,54.6h5.9v1.8h-3.6v0.8h3.6V59h-3.6v0.8h3.6v1.8h-5.9V54.6z"/>
		<path class="st5" d="M25.2,59.8h3.7c0.4,0,0.5-0.1,0.5-0.4c0-0.3-0.1-0.4-0.5-0.4h-1.7c-1.3,0-2.2-0.8-2.2-2.2
			c0-1.5,0.9-2.2,2.2-2.2h4v1.8h-3.6c-0.3,0-0.5,0.1-0.5,0.4c0,0.3,0.2,0.4,0.5,0.4h1.7c1.3,0,2.2,0.8,2.2,2.1s-0.9,2.2-2.2,2.2
			h-4.2L25.2,59.8L25.2,59.8z"/>
		<path class="st5" d="M37.9,54.6h2.4l0.8,4.2h0.1l1.5-2.4h0.1l1.5,2.4h0.1l0.8-4.2h2.4l-1.6,7h-2.2l-1.1-1.7h-0.1l-1.1,1.7h-2.2
			L37.9,54.6z"/>
		<path class="st5" d="M48,54.6h5.9v1.8h-3.6v0.8h3.6V59h-3.6v0.8h3.6v1.8H48V54.6z"/>
		<path class="st5" d="M57.8,54.6h3.8l1.7,6.9H61l-0.3-1.1h-2.2l-0.3,1.1h-2.3L57.8,54.6z M59,58.8h1.4l-0.6-2.4h-0.2L59,58.8z"/>
		<path class="st5" d="M64,54.6h4.5c1.5,0,2.5,0.9,2.5,2.3c0,1-0.4,1.6-1.2,2l1.1,2.7h-2.4l-0.9-2.5h-1.4v2.5H64V54.6z M67.9,57.6
			c0.4,0,0.7-0.1,0.7-0.6c0-0.4-0.3-0.6-0.7-0.6h-1.8v1.1L67.9,57.6L67.9,57.6z"/>
		<path class="st5" d="M71.7,54.6h5.9v1.8H74v0.8h3.6V59H74v0.8h3.6v1.8h-5.9V54.6z"/>
		<g>
			<path class="st5" d="M33.2,61.4c-0.2-0.2-0.3-0.5-0.3-0.7c0-0.3,0.1-0.5,0.3-0.7s0.5-0.3,0.8-0.3s0.6,0.1,0.8,0.3
				s0.3,0.4,0.3,0.7s-0.1,0.5-0.3,0.7s-0.5,0.3-0.8,0.3S33.4,61.6,33.2,61.4z M32.4,54.6h3.2L34.7,59h-1.5L32.4,54.6z"/>
		</g>
	</g>
</g>
<polygon class="st3" points="77.8,11.3 78.1,5.4 5.2,5.4 10.6,45.3 44.3,43.2 61.6,51.3 61.6,42.1 76.4,41.2 72.4,11.3 "/>
<g>
	<g>
		<g>
			<rect x="36.7" y="12.6" class="st5" width="4.7" height="22.6"/>
		</g>
		<polygon class="st5" points="23.6,30.6 23.6,12.6 18,12.6 18,35.2 28.9,35.2 28.9,30.1 		"/>
		<polygon class="st5" points="30.4,12.6 30.4,20.5 26.3,20.5 26.3,25.3 30.4,25.3 30.4,35.2 35.1,35.2 35.1,12.6 		"/>
	</g>
	<g>
		<g>
			<g>
				<rect x="63.2" y="12.6" class="st5" width="4.7" height="22.6"/>
			</g>
		</g>
		<polygon class="st5" points="50.1,30.6 50.1,12.6 44.5,12.6 44.5,35.2 55.4,35.2 55.4,30.1 		"/>
		<polygon class="st5" points="57,12.6 57,20.5 52.9,20.5 52.9,25.3 57,25.3 57,35.2 61.6,35.2 61.6,12.6 		"/>
	</g>
</g>
<path class="st5" d="M52.9,20"/>
<polyline class="st4" points="145.3,11.3 72.4,11.3 77.8,51.3 87.4,50.7 87.4,58.9 103,49.7 143.6,47.2 "/>
<g>
	<g>
		<g>
			<path class="st5" d="M108.4,19v22.6h-5.6V19H108.4z"/>
		</g>
		<path class="st5" d="M101.3,37.2l-6.7-5.7c0.6-1.6,1-3.3,1-4.8v-0.3h5.1v-4.9h-5.1v-3.4l-5.5,0.3v3h-5.3v4.9H90v0.3
			c0,3.7-2.5,7.9-6.1,10.6l-0.2,0.1l3.7,4c2-1.6,3.5-3.5,4.8-5.3l5.6,5.2L101.3,37.2z"/>
	</g>
	<g>
		<polygon class="st5" points="119.8,33.3 125.3,33.3 126,19 111.5,19 111.5,23.3 120.3,23.3 120.2,25.1 111.5,25.1 111.5,29.2 
			120,29.2 		"/>
		<rect x="128.4" y="19" class="st5" width="5.6" height="15.1"/>
		<polygon class="st5" points="118.2,33.4 112.6,33.4 112.6,41.6 134.2,41.6 134.2,36.4 118.2,37.4 		"/>
	</g>
</g>
<g>
	<path class="st3" d="M13.2,59.1l-2.7-4.5h2.6l1.1,2.1h0.1l1.1-2.1h2.6l-2.7,4.5v2.5h-2.3V59.1z"/>
	<path class="st3" d="M18.6,54.7h5.9v1.8h-3.6v0.8h3.6V59h-3.6v0.8h3.6v1.8h-5.9V54.7z"/>
	<path class="st3" d="M25.3,59.8H29c0.4,0,0.5-0.1,0.5-0.4c0-0.3-0.1-0.4-0.5-0.4h-1.7c-1.3,0-2.2-0.8-2.2-2.2
		c0-1.5,0.9-2.2,2.2-2.2h4v1.8h-3.6c-0.3,0-0.5,0.1-0.5,0.4c0,0.3,0.2,0.4,0.5,0.4h1.7c1.3,0,2.2,0.8,2.2,2.1c0,1.3-0.9,2.2-2.2,2.2
		h-4.2V59.8z"/>
	<path class="st3" d="M38,54.7h2.4l0.8,4.2h0.1l1.5-2.4h0.1l1.5,2.4h0.1l0.8-4.2h2.4l-1.4,7H44l-1.1-1.7h-0.1l-1.1,1.7h-2.2L38,54.7
		z"/>
	<path class="st3" d="M48.2,54.7h5.9v1.8h-3.6v0.8h3.6V59h-3.6v0.8h3.6v1.8h-5.9V54.7z"/>
	<path class="st3" d="M58,54.7h3.8l1.7,7h-2.3L61,60.5h-2.2l-0.3,1.1h-2.3L58,54.7z M59.2,58.8h1.4L60,56.4h-0.2L59.2,58.8z"/>
	<path class="st3" d="M64.2,54.7h4.5c1.5,0,2.5,0.9,2.5,2.3c0,1-0.4,1.6-1.2,2l1.1,2.7h-2.4l-0.9-2.5h-1.4v2.5h-2.1V54.7z
		 M68.2,57.6c0.4,0,0.7-0.1,0.7-0.6c0-0.4-0.3-0.6-0.7-0.6h-1.8v1.2H68.2z"/>
	<path class="st3" d="M71.9,54.7h5.9v1.8h-3.6v0.8h3.6V59h-3.6v0.8h3.6v1.8h-5.9V54.7z"/>
	<g>
		<path class="st3" d="M33.3,61.4c-0.2-0.2-0.3-0.5-0.3-0.7c0-0.3,0.1-0.5,0.3-0.7c0.2-0.2,0.5-0.3,0.8-0.3c0.3,0,0.6,0.1,0.8,0.3
			c0.2,0.2,0.3,0.4,0.3,0.7c0,0.3-0.1,0.5-0.3,0.7c-0.2,0.2-0.5,0.3-0.8,0.3C33.8,61.7,33.5,61.6,33.3,61.4z M32.5,54.6h3.2
			l-0.9,4.5h-1.5L32.5,54.6z"/>
	</g>
</g>
</svg>
